<?xml version="1.0" encoding="utf-8"?>
<!-- Generator: Adobe Illustrator 19.1.0, SVG Export Plug-In . SVG Version: 6.00 Build 0)  -->
<svg version="1.1" id="Layer_1" xmlns="http://www.w3.org/2000/svg" xmlns:xlink="http://www.w3.org/1999/xlink" x="0px" y="0px"
	 viewBox="-135 363.3 339.6 66.7" style="enable-background:new -135 363.3 339.6 66.7;" xml:space="preserve">
<style type="text/css">
	.st0{fill:#00AEEF;}
	.st1{fill:#662D91;}
	.st2{fill:#262262;}
	.st3{fill:#007CAA;}
	.st4{fill:#00A79D;}
	.st5{fill:#8DC63F;}
	.st6{fill:#D7DF23;}
	.st7{fill:#F9ED32;}
	.st8{fill:#FBB040;}
	.st9{fill:#EF4623;}
	.st10{fill:#ED1C24;}
	.st11{fill:#AF1116;}
	.st12{fill:#939393;}
	.st13{enable-background:new    ;}
</style>
<g>
	<path d="M-41,410.9l-2.4-20.2c-0.2-1.7-0.3-3.7-0.3-3.7h-0.1c0,0-0.4,2-1,3.7l-6.3,20.2h-3.2l-6.3-20.2c-0.5-1.7-1-3.7-1-3.7h-0.1
		c0,0-0.1,2-0.3,3.7l-2.5,20.2h-4.3l3.9-29.1h5.4l5.9,19c0.5,1.6,0.9,3.6,0.9,3.6h0.1c0,0,0.4-1.9,0.9-3.6l5.9-19h5.4l3.9,29.1H-41z
		"/>
	<path class="st0" d="M-32.1,386.7c-1.5,0-2.7-1.2-2.7-2.6c0-1.4,1.2-2.6,2.7-2.6s2.7,1.2,2.7,2.6S-30.6,386.7-32.1,386.7z"/>
	<path d="M-16.9,392c-0.7-0.2-1.4-0.2-2.3-0.2c-1.3,0-2.7,0.2-3.5,0.6v18.5h-4.5v-21.2c2.2-0.9,5.4-1.6,8.7-1.6c1,0,1.9,0,2.5,0.2
		L-16.9,392z"/>
	<path d="M-2.8,399.7c-4.6,0.3-9.1,0.6-9.1,4.6c0,2.4,1.8,3.8,5.3,3.8c1.5,0,3.2-0.2,3.9-0.6L-2.8,399.7L-2.8,399.7z M-6.5,411.4
		c-6.4,0-9.7-2.6-9.7-7c0-6.2,6.6-7.3,13.4-7.7v-1.4c0-2.8-1.9-3.8-4.7-3.8c-2.1,0-4.7,0.7-6.2,1.4l-1.2-3.1
		c1.8-0.8,4.8-1.6,7.8-1.6c5.3,0,8.6,2.1,8.6,7.6v14.1C-0.1,410.7-3.4,411.4-6.5,411.4z"/>
	<path d="M11.7,391.7c-1.2,0-2.6,0.3-3.2,0.6v14.8c0.6,0.3,2,0.5,3.2,0.5c4.1,0,6.3-3.4,6.3-8.1C18,394.7,15.8,391.7,11.7,391.7
		L11.7,391.7z M12.1,411.2c-1.4,0-2.9-0.3-3.6-0.5v6.9H4v-27.9c1.6-0.8,4.6-1.6,7.7-1.6c7,0,10.9,4.4,10.9,11.4
		C22.5,406.4,18.9,411.2,12.1,411.2z"/>
	<path d="M34.5,391.7c-3.5,0-5.3,3.2-5.3,8s1.7,8,5.3,8c3.5,0,5.3-3.2,5.3-8C39.8,394.9,38,391.7,34.5,391.7L34.5,391.7z
		 M34.5,411.4c-6.4,0-9.8-5-9.8-11.6s3.5-11.6,9.8-11.6s9.8,5,9.8,11.6C44.3,406.3,40.8,411.4,34.5,411.4z"/>
	<rect x="46.9" y="381.8" width="4.6" height="29.1"/>
	<path class="st0" d="M56.4,386.7c-1.5,0-2.7-1.2-2.7-2.6c0-1.4,1.2-2.6,2.7-2.6s2.7,1.2,2.7,2.6S57.9,386.7,56.4,386.7z"/>
	<rect x="54.1" y="388.1" width="4.6" height="22.8"/>
	<rect x="-34.4" y="388.1" width="4.6" height="22.8"/>
	<path d="M68.1,411.4c-2.6,0-5.4-0.7-7-1.6l1.5-3.5c1.2,0.7,3.6,1.5,5.3,1.5c2.4,0,4.1-1.2,4.1-3.1c0-2-1.7-2.8-4-3.6
		c-3-1.1-6.4-2.5-6.4-6.7c0-3.7,2.9-6.3,7.8-6.3c2.7,0,4.9,0.7,6.5,1.6l-1.4,3.1c-1-0.6-3-1.3-4.6-1.3c-2.4,0-3.7,1.2-3.7,2.9
		c0,2,1.7,2.7,3.9,3.6c3.1,1.2,6.5,2.4,6.5,6.8C76.7,408.8,73.7,411.4,68.1,411.4z"/>
</g>
<path class="st1" d="M-86.9,407.5c0-0.4-0.2-0.7-0.5-0.9l-9.2-5.4c-0.3-0.2-0.7-0.2-1,0l-9.2,5.4c-0.3,0.2-0.5,0.5-0.5,0.9v10.7
	c0,0,0,0,0,0.1c0,0.4,0.2,0.7,0.5,0.9l9.2,5.4c0.2,0.1,0.3,0.1,0.5,0.1s0.3,0,0.5-0.1l9.2-5.4c0.2-0.1,0.4-0.3,0.4-0.5
	c0-0.1,0.1-0.2,0.1-0.4V407.5z"/>
<path class="st2" d="M-78.2,401.3l-9.2-5.4c-0.3-0.2-0.7-0.2-1,0l-9.3,5.4c-0.3,0.2-0.4,0.5-0.4,0.8c0,0,0,0,0,0.1v10.6v0.1
	c0,0.4,0.2,0.7,0.5,0.9l9.2,5.4c0.2,0.1,0.3,0.1,0.5,0.1s0.3,0,0.5-0.1l9.2-5.4c0.2-0.1,0.4-0.3,0.4-0.5c0-0.1,0.1-0.2,0.1-0.4
	v-10.8C-77.7,401.8-77.9,401.5-78.2,401.3z"/>
<path class="st3" d="M-77.7,391.4c0-0.4-0.2-0.7-0.5-0.9l-9.2-5.4c-0.3-0.2-0.7-0.2-1,0l-9.2,5.4c-0.3,0.2-0.5,0.5-0.5,0.9v10.7l0,0
	c0,0.4,0.2,0.7,0.5,0.9l9.2,5.4c0.2,0.1,0.3,0.1,0.5,0.1s0.3,0,0.5-0.1l9.2-5.4c0.2-0.1,0.4-0.3,0.4-0.5c0-0.1,0.1-0.2,0.1-0.4
	V391.4z"/>
<path class="st0" d="M-78.2,379.8l-9.2-5.4c-0.3-0.2-0.7-0.2-1,0l-9.3,5.4c-0.3,0.2-0.4,0.5-0.4,0.8c0,0,0,0,0,0.1v10.6v0.1
	c0,0.4,0.2,0.7,0.5,0.9l9.2,5.4c0.2,0.1,0.3,0.1,0.5,0.1s0.3,0,0.5-0.1l9.2-5.4c0.2-0.1,0.4-0.3,0.4-0.5c0-0.1,0.1-0.2,0.1-0.4
	v-10.8C-77.7,380.3-77.9,379.9-78.2,379.8z"/>
<path class="st4" d="M-87.4,374.4l-9.2-5.4c-0.3-0.2-0.7-0.2-1,0l-9.2,5.4c-0.1,0-0.1,0.1-0.2,0.2c-0.2,0.2-0.3,0.5-0.3,0.8v10.7
	c0,0,0,0,0,0.1c0,0.4,0.2,0.7,0.5,0.9l9.2,5.4c0.2,0.1,0.3,0.1,0.5,0.1s0.3,0,0.5-0.1l9.2-5.4c0.2-0.1,0.4-0.3,0.4-0.5
	c0-0.1,0.1-0.2,0.1-0.4v-10.8C-86.9,374.9-87.1,374.6-87.4,374.4z"/>
<path class="st5" d="M-96.7,368.9l-9.2-5.4c-0.3-0.2-0.7-0.2-1,0l-9.2,5.4c-0.1,0-0.1,0.1-0.2,0.2c-0.2,0.2-0.3,0.5-0.3,0.8v10.7
	c0,0,0,0,0,0.1c0,0.4,0.2,0.7,0.5,0.9l9.2,5.4c0.2,0.1,0.3,0.1,0.5,0.1s0.3,0,0.5-0.1l9.2-5.4c0.2-0.1,0.4-0.3,0.4-0.5
	c0-0.1,0.1-0.2,0.1-0.4v-10.8C-96.1,369.5-96.3,369.1-96.7,368.9z"/>
<path class="st6" d="M-105.9,374.4l-9.2-5.4c-0.3-0.2-0.7-0.2-1,0l-9.3,5.4c-0.3,0.2-0.4,0.5-0.4,0.8c0,0,0,0,0,0.1v10.6v0.1
	c0,0.4,0.2,0.7,0.5,0.9l9.2,5.4c0.2,0.1,0.3,0.1,0.5,0.1s0.3,0,0.5-0.1l9.2-5.4c0.2-0.1,0.4-0.3,0.4-0.5c0-0.1,0.1-0.2,0.1-0.4
	v-10.8C-105.4,374.9-105.6,374.6-105.9,374.4z"/>
<path class="st7" d="M-115.2,379.7l-9.2-5.4c-0.3-0.2-0.7-0.2-1,0l-9.2,5.4c-0.1,0-0.1,0.1-0.2,0.2c-0.2,0.2-0.3,0.5-0.3,0.8v10.7
	c0,0,0,0,0,0.1c0,0.4,0.2,0.7,0.5,0.9l9.2,5.4c0.2,0.1,0.3,0.1,0.5,0.1s0.3,0,0.5-0.1l9.2-5.4c0.2-0.1,0.4-0.3,0.4-0.5
	c0-0.1,0.1-0.2,0.1-0.4v-10.8C-114.6,380.2-114.9,379.9-115.2,379.7z"/>
<path class="st8" d="M-114.6,391.4c0-0.4-0.2-0.7-0.5-0.9l-9.2-5.4c-0.3-0.2-0.7-0.2-1,0l-9.2,5.4c-0.3,0.2-0.5,0.5-0.5,0.9v10.7
	c0,0,0,0,0,0.1c0,0.4,0.2,0.7,0.5,0.9l9.2,5.4c0.2,0.1,0.3,0.1,0.5,0.1s0.3,0,0.5-0.1l9.2-5.4c0.2-0.1,0.4-0.3,0.4-0.5
	c0-0.1,0.1-0.2,0.1-0.4V391.4z"/>
<path class="st9" d="M-115.2,401.2l-9.2-5.4c-0.3-0.2-0.7-0.2-1,0l-9.2,5.4c-0.1,0-0.1,0.1-0.2,0.2c-0.2,0.2-0.3,0.5-0.3,0.8v10.7
	c0,0,0,0,0,0.1c0,0.4,0.2,0.7,0.5,0.9l9.2,5.4c0.2,0.1,0.3,0.1,0.5,0.1s0.3,0,0.5-0.1l9.2-5.4c0.2-0.1,0.4-0.3,0.4-0.5
	c0-0.1,0.1-0.2,0.1-0.4v-10.9C-114.6,401.8-114.9,401.4-115.2,401.2z"/>
<path class="st10" d="M-106.9,419.2c-0.3-0.2-0.5-0.5-0.5-0.9c0,0,0,0,0-0.1v-10.7c0-0.4,0.2-0.7,0.5-0.9l0.5-0.3l-8.7-5.1
	c-0.3-0.2-0.7-0.2-1,0l-9.3,5.4c-0.3,0.2-0.5,0.5-0.4,0.9v10.6v0.1c0,0.4,0.2,0.7,0.5,0.9l9.2,5.4c0.2,0.1,0.3,0.1,0.5,0.1
	s0.3,0,0.5-0.1l8.7-5.1L-106.9,419.2z"/>
<path class="st11" d="M-96.6,424.5c-0.2,0.1-0.3,0.1-0.5,0.1s-0.3,0-0.5-0.1l-9.2-5.4c-0.3-0.2-0.5-0.5-0.5-0.9c0,0,0,0,0-0.1v-10.7
	c0-0.3,0.1-0.6,0.4-0.8l-9.1,5.3c-0.3,0.2-0.5,0.5-0.5,0.9v10.7c0,0,0,0,0,0.1c0,0.4,0.2,0.7,0.5,0.9l9.2,5.4
	c0.2,0.1,0.3,0.1,0.5,0.1s0.3,0,0.5-0.1L-96.6,424.5C-96.6,424.6-96.6,424.5-96.6,424.5L-96.6,424.5z"/>
<path class="st12" d="M174.3,401.1c-1.2-0.1-2.3-0.6-3.1-1.5s-1.3-2.1-1.2-3.3c0-1.2,0.5-2.3,1.3-3.2c0.4-0.4,0.9-0.7,1.4-1
	c0.5-0.2,1.1-0.3,1.7-0.3c0.6,0,1.1,0.1,1.7,0.3c0.5,0.2,1,0.5,1.4,0.9s0.7,0.9,0.9,1.4c0.2,0.5,0.3,1.1,0.3,1.7h3.7
	c0-1.1-0.2-2.2-0.6-3.2s-1-1.9-1.8-2.7c-1.5-1.6-3.6-2.4-5.7-2.4s-4.2,0.9-5.7,2.5s-2.3,3.7-2.3,5.9c0,4.6,3.6,8.8,8.1,8.8h30.3
	v-4.1L174.3,401.1L174.3,401.1z M204.5,410.8v-4h-30.3c-2,0-4-0.6-5.6-1.7c-1.7-1.2-3-2.8-3.8-4.7c-0.8-1.9-1-4-0.6-6
	s1.3-3.9,2.7-5.4s3.2-2.5,5.2-2.9s4-0.2,5.8,0.5c1.9,0.8,3.5,2.1,4.6,3.8c1.1,1.7,1.7,3.7,1.8,5.8h4c0-2.9-0.9-5.6-2.4-8
	s-3.7-4.2-6.3-5.3c-2.6-1.1-5.4-1.4-8.1-0.8c-2.7,0.6-5.2,2-7.2,4c-2,2.1-3.3,4.6-3.8,7.4c-0.5,2.8-0.3,5.7,0.8,8.4
	c1,2.6,2.8,4.9,5.2,6.5c2.3,1.6,5,2.4,7.8,2.4H204.5z M148.1,410.8v-19.4h-4v-4.1h7.8v23.5H148.1L148.1,410.8z M148.9,385.6h4.7
	v25.2h3.9v-29.2h-8.6V385.6z"/>
<g class="st13">
	<path class="st12" d="M89.2,390.2v-8.6H92c0.6,0,1,0.1,1.4,0.2c0.4,0.1,0.7,0.3,1,0.5c0.3,0.2,0.4,0.4,0.6,0.7
		c0.1,0.3,0.2,0.6,0.2,1c0,0.2,0,0.4-0.1,0.6c-0.1,0.2-0.2,0.4-0.3,0.5c-0.1,0.2-0.3,0.3-0.5,0.4c-0.2,0.1-0.4,0.2-0.7,0.3
		c0.6,0.1,1.1,0.4,1.4,0.7c0.3,0.3,0.5,0.7,0.5,1.3c0,0.4-0.1,0.7-0.2,1s-0.3,0.6-0.6,0.8c-0.3,0.2-0.6,0.4-1,0.5
		c-0.4,0.1-0.8,0.2-1.3,0.2H89.2z M90.6,385.3H92c0.6,0,1-0.1,1.3-0.3c0.3-0.2,0.4-0.6,0.4-1c0-0.5-0.1-0.8-0.4-1s-0.7-0.3-1.3-0.3
		h-1.5V385.3z M90.6,386.3v2.7h1.7c0.3,0,0.6,0,0.8-0.1c0.2-0.1,0.4-0.2,0.5-0.3c0.1-0.1,0.2-0.3,0.3-0.5c0.1-0.2,0.1-0.4,0.1-0.6
		c0-0.4-0.1-0.7-0.4-1c-0.3-0.2-0.7-0.4-1.3-0.4H90.6z"/>
	<path class="st12" d="M98,387l-2-3h1.2c0.1,0,0.2,0,0.2,0s0.1,0.1,0.1,0.1l1.4,2.2c0-0.1,0.1-0.2,0.2-0.4l1.2-1.8
		c0.1-0.1,0.2-0.2,0.3-0.2h1.2l-2,2.9l2.1,3.2h-1.2c-0.1,0-0.2,0-0.2-0.1c-0.1-0.1-0.1-0.1-0.1-0.2l-1.4-2.3c0,0.1-0.1,0.3-0.1,0.3
		l-1.3,1.9c0,0.1-0.1,0.1-0.1,0.2s-0.1,0.1-0.2,0.1h-1.2L98,387z"/>
	<path class="st12" d="M105.1,383.9c0.5,0,0.9,0.1,1.2,0.2c0.4,0.1,0.7,0.4,0.9,0.6c0.3,0.3,0.5,0.6,0.6,1c0.1,0.4,0.2,0.8,0.2,1.3
		c0,0.5-0.1,0.9-0.2,1.3c-0.1,0.4-0.3,0.7-0.6,1c-0.3,0.3-0.6,0.5-0.9,0.6c-0.4,0.1-0.8,0.2-1.2,0.2c-0.5,0-0.9-0.1-1.2-0.2
		c-0.4-0.1-0.7-0.4-0.9-0.6c-0.3-0.3-0.5-0.6-0.6-1c-0.1-0.4-0.2-0.8-0.2-1.3c0-0.5,0.1-0.9,0.2-1.3c0.1-0.4,0.3-0.7,0.6-1
		c0.3-0.3,0.6-0.5,0.9-0.6C104.2,384,104.6,383.9,105.1,383.9z M105.1,389.2c0.6,0,1-0.2,1.2-0.6c0.3-0.4,0.4-0.9,0.4-1.6
		c0-0.7-0.1-1.2-0.4-1.6c-0.3-0.4-0.7-0.6-1.2-0.6c-0.6,0-1,0.2-1.2,0.6c-0.3,0.4-0.4,0.9-0.4,1.6c0,0.7,0.1,1.2,0.4,1.6
		C104.1,389.1,104.5,389.2,105.1,389.2z"/>
	<path class="st12" d="M114.5,384v5.1h1.1v2.7c0,0.1,0,0.2-0.1,0.3c-0.1,0.1-0.2,0.1-0.3,0.1h-0.8v-2.1h-4.8v1.7
		c0,0.1,0,0.2-0.1,0.3c-0.1,0.1-0.1,0.1-0.3,0.1h-0.8v-3h0.2c0.1,0,0.3,0,0.4-0.1s0.3-0.1,0.4-0.3s0.2-0.3,0.3-0.6
		c0.1-0.2,0.2-0.5,0.3-0.9c0.1-0.4,0.2-0.8,0.2-1.4c0.1-0.5,0.1-1.2,0.2-2H114.5z M111.5,385c0,0.6-0.1,1.1-0.2,1.5
		c-0.1,0.4-0.1,0.8-0.2,1.2c-0.1,0.3-0.2,0.6-0.3,0.9c-0.1,0.2-0.2,0.5-0.3,0.6h2.7V385H111.5z"/>
	<path class="st12" d="M116.6,390.2V384h1.3v3.8c0,0.1,0,0.2,0,0.3c0,0.1,0,0.2,0,0.3c0.1-0.2,0.2-0.3,0.2-0.5c0,0,0-0.1,0.1-0.2
		c0.1-0.1,0.2-0.2,0.3-0.4s0.3-0.4,0.4-0.6s0.3-0.4,0.5-0.7c0.4-0.5,0.8-1.1,1.3-1.8c0-0.1,0.1-0.2,0.2-0.2c0.1-0.1,0.2-0.1,0.3-0.1
		h0.8v6.1h-1.3v-3.8c0-0.1,0-0.2,0-0.3c0-0.1,0-0.2,0-0.3c0,0.1-0.1,0.2-0.1,0.2c0,0.1-0.1,0.1-0.1,0.2c0,0-0.1,0.1-0.1,0.2
		c-0.1,0.1-0.2,0.3-0.3,0.4s-0.3,0.4-0.4,0.6s-0.3,0.4-0.5,0.7c-0.4,0.5-0.8,1.1-1.3,1.8c0,0.1-0.1,0.1-0.2,0.2
		c-0.1,0.1-0.2,0.1-0.3,0.1H116.6z"/>
	<path class="st12" d="M122.9,384h5.8v1h-2.3v5.1h-1.3V385h-2.3V384z"/>
</g>
<g class="st13">
	<path class="st12" d="M88.9,394.3h2.3c0.4,0,0.7,0,1,0.1c0.3,0.1,0.5,0.2,0.7,0.3s0.3,0.3,0.4,0.5c0.1,0.2,0.1,0.4,0.1,0.6
		c0,0.1,0,0.3-0.1,0.4c0,0.1-0.1,0.3-0.2,0.4s-0.2,0.2-0.4,0.4c-0.1,0.1-0.3,0.2-0.6,0.3c0.4,0.1,0.8,0.2,1,0.5
		c0.3,0.2,0.4,0.6,0.4,0.9c0,0.3-0.1,0.6-0.2,0.8c-0.1,0.2-0.3,0.4-0.5,0.6c-0.2,0.1-0.5,0.3-0.7,0.3c-0.3,0.1-0.6,0.1-0.9,0.1h-2.4
		V394.3z M90.2,396.9h1.1c0.2,0,0.3,0,0.4-0.1c0.1,0,0.3-0.1,0.3-0.2s0.2-0.2,0.2-0.3c0.1-0.1,0.1-0.2,0.1-0.4c0-0.1,0-0.2-0.1-0.3
		s-0.1-0.2-0.2-0.3c-0.1-0.1-0.2-0.1-0.3-0.2c-0.1,0-0.3-0.1-0.5-0.1h-1.1V396.9z M90.2,397.8v1.8h1.2c0.4,0,0.6-0.1,0.8-0.3
		c0.2-0.2,0.3-0.4,0.3-0.7c0-0.1,0-0.2-0.1-0.3c0-0.1-0.1-0.2-0.2-0.3s-0.2-0.1-0.4-0.2c-0.1,0-0.3-0.1-0.5-0.1H90.2z"/>
	<path class="st12" d="M102,394.3v1h-2.8v5.1h-1.3v-6.1H102z"/>
	<path class="st12" d="M102.9,402.5v-8.2h0.8c0.2,0,0.3,0.1,0.3,0.2l0.1,0.6c0.1-0.1,0.3-0.3,0.4-0.4c0.1-0.1,0.3-0.2,0.5-0.3
		s0.3-0.2,0.5-0.2c0.2,0,0.4-0.1,0.6-0.1c0.3,0,0.7,0.1,0.9,0.2c0.3,0.1,0.5,0.3,0.7,0.6c0.2,0.3,0.4,0.6,0.5,1
		c0.1,0.4,0.2,0.8,0.2,1.3c0,0.5-0.1,0.9-0.2,1.3s-0.3,0.7-0.5,1c-0.2,0.3-0.5,0.5-0.8,0.7s-0.7,0.2-1.1,0.2c-0.4,0-0.7-0.1-0.9-0.2
		s-0.5-0.3-0.7-0.5v2.6H102.9z M105.7,395.3c-0.3,0-0.6,0.1-0.9,0.2c-0.2,0.1-0.5,0.3-0.7,0.6v2.8c0.2,0.2,0.4,0.4,0.6,0.5
		s0.5,0.1,0.7,0.1c0.5,0,0.9-0.2,1.2-0.6s0.4-0.9,0.4-1.6c0-0.4,0-0.7-0.1-1c-0.1-0.3-0.2-0.5-0.3-0.7s-0.3-0.3-0.4-0.4
		S105.9,395.3,105.7,395.3z"/>
	<path class="st12" d="M111.6,402.2c0,0.1-0.1,0.2-0.2,0.2c-0.1,0.1-0.2,0.1-0.3,0.1h-1l1.1-2.4l-2.5-5.7h1.1c0.1,0,0.2,0,0.2,0.1
		s0.1,0.1,0.1,0.2l1.5,3.5c0.1,0.2,0.1,0.4,0.2,0.6c0-0.1,0.1-0.2,0.1-0.3c0-0.1,0.1-0.2,0.1-0.3l1.4-3.5c0-0.1,0.1-0.1,0.1-0.2
		c0.1,0,0.1-0.1,0.2-0.1h1L111.6,402.2z"/>
	<path class="st12" d="M121,394.3v6.1h-1.3v-5.1h-2.6v5.1h-1.3v-6.1H121z"/>
	<path class="st12" d="M127.8,394.3v6.1h-1.3v-5.1h-2.6v5.1h-1.3v-6.1H127.8z"/>
	<path class="st12" d="M131.4,402.2c0,0.1-0.1,0.2-0.2,0.2c-0.1,0.1-0.2,0.1-0.3,0.1h-1l1.1-2.4l-2.5-5.7h1.1c0.1,0,0.2,0,0.2,0.1
		c0.1,0,0.1,0.1,0.1,0.2l1.5,3.5c0.1,0.2,0.1,0.4,0.2,0.6c0-0.1,0.1-0.2,0.1-0.3c0-0.1,0.1-0.2,0.1-0.3l1.4-3.5
		c0-0.1,0.1-0.1,0.1-0.2c0.1,0,0.1-0.1,0.2-0.1h1L131.4,402.2z"/>
</g>
<g class="st13">
	<path class="st12" d="M92.6,405c0.1-0.1,0.2-0.2,0.3-0.3c0.1-0.1,0.2-0.1,0.3-0.1h1l-1.5,2.3c-0.1,0.2-0.2,0.3-0.3,0.4
		c-0.1,0.1-0.2,0.2-0.4,0.2c0.2,0.1,0.4,0.1,0.5,0.3s0.2,0.3,0.4,0.4l1.5,2.5h-0.9c-0.2,0-0.4,0-0.5-0.1c-0.1-0.1-0.2-0.2-0.3-0.3
		l-1-1.8c-0.1-0.2-0.2-0.3-0.3-0.3c-0.1-0.1-0.3-0.1-0.5-0.1h-0.6v2.7h-1.3v-6.1h1.3v2.6h0.5c0.2,0,0.3,0,0.4-0.1
		c0.1-0.1,0.2-0.2,0.3-0.3L92.6,405z"/>
	<path class="st12" d="M97.7,404.6c0.5,0,0.9,0.1,1.2,0.2c0.4,0.1,0.7,0.4,0.9,0.6c0.3,0.3,0.5,0.6,0.6,1c0.1,0.4,0.2,0.8,0.2,1.3
		c0,0.5-0.1,0.9-0.2,1.3c-0.1,0.4-0.3,0.7-0.6,1c-0.3,0.3-0.6,0.5-0.9,0.6c-0.4,0.1-0.8,0.2-1.2,0.2c-0.5,0-0.9-0.1-1.2-0.2
		c-0.4-0.1-0.7-0.4-0.9-0.6c-0.3-0.3-0.5-0.6-0.6-1c-0.1-0.4-0.2-0.8-0.2-1.3c0-0.5,0.1-0.9,0.2-1.3c0.1-0.4,0.3-0.7,0.6-1
		c0.3-0.3,0.6-0.5,0.9-0.6C96.8,404.6,97.3,404.6,97.7,404.6z M97.7,409.9c0.6,0,1-0.2,1.2-0.6c0.3-0.4,0.4-0.9,0.4-1.6
		c0-0.7-0.1-1.2-0.4-1.6c-0.3-0.4-0.7-0.6-1.2-0.6c-0.6,0-1,0.2-1.2,0.6c-0.3,0.4-0.4,0.9-0.4,1.6c0,0.7,0.1,1.2,0.4,1.6
		C96.7,409.7,97.2,409.9,97.7,409.9z"/>
	<path class="st12" d="M105.3,408.1c0,0.1,0.1,0.2,0.1,0.4c0-0.1,0.1-0.2,0.1-0.4s0.1-0.2,0.2-0.3l1.6-2.8c0.1-0.1,0.1-0.2,0.2-0.2
		c0.1,0,0.2-0.1,0.3-0.1h1v6.1h-1.2v-3.7c0-0.1,0-0.3,0-0.4s0-0.3,0.1-0.5l-1.9,3.5c0,0.1-0.1,0.1-0.2,0.2c-0.1,0-0.1,0.1-0.2,0.1
		h-0.1c-0.1,0-0.2,0-0.2-0.1c-0.1,0-0.1-0.1-0.2-0.2l-2-3.5c0,0.1,0,0.3,0.1,0.5c0,0.2,0,0.3,0,0.4v3.7h-1.2v-6.1h1.1
		c0.1,0,0.2,0,0.3,0.1s0.2,0.1,0.2,0.2l1.7,2.8C105.2,407.9,105.2,408,105.3,408.1z"/>
	<path class="st12" d="M115.7,404.7v6.1h-1.3v-5.1h-2.6v5.1h-1.3v-6.1H115.7z"/>
	<path class="st12" d="M121.2,410.8c-0.1,0-0.2,0-0.3-0.1c-0.1,0-0.1-0.1-0.2-0.2l-0.1-0.5c-0.2,0.1-0.3,0.3-0.5,0.4
		c-0.2,0.1-0.3,0.2-0.5,0.3s-0.3,0.1-0.5,0.2c-0.2,0-0.4,0.1-0.6,0.1c-0.2,0-0.5,0-0.7-0.1c-0.2-0.1-0.4-0.2-0.6-0.3
		c-0.2-0.1-0.3-0.3-0.4-0.5s-0.1-0.4-0.1-0.7c0-0.2,0.1-0.5,0.2-0.7c0.1-0.2,0.3-0.4,0.6-0.6s0.7-0.3,1.1-0.4s1.1-0.2,1.8-0.2v-0.4
		c0-0.4-0.1-0.8-0.3-1c-0.2-0.2-0.5-0.3-0.8-0.3c-0.2,0-0.5,0-0.6,0.1c-0.2,0.1-0.3,0.1-0.4,0.2c-0.1,0.1-0.2,0.1-0.3,0.2
		c-0.1,0.1-0.2,0.1-0.3,0.1c-0.1,0-0.2,0-0.2-0.1c-0.1,0-0.1-0.1-0.2-0.2l-0.2-0.4c0.7-0.6,1.5-1,2.5-1c0.4,0,0.7,0.1,0.9,0.2
		c0.3,0.1,0.5,0.3,0.7,0.5c0.2,0.2,0.3,0.5,0.4,0.7c0.1,0.3,0.1,0.6,0.1,1v3.9H121.2z M119,410c0.3,0,0.6-0.1,0.9-0.2
		s0.5-0.3,0.7-0.5v-1.1c-0.5,0-0.8,0.1-1.2,0.1c-0.3,0.1-0.6,0.1-0.8,0.2c-0.2,0.1-0.3,0.2-0.4,0.3c-0.1,0.1-0.1,0.3-0.1,0.4
		c0,0.1,0,0.3,0.1,0.4c0,0.1,0.1,0.2,0.2,0.3c0.1,0.1,0.2,0.1,0.3,0.1C118.7,410,118.8,410,119,410z"/>
	<path class="st12" d="M128.5,404.7v6.1h-1.3V408h-2.6v2.8h-1.3v-6.1h1.3v2.4h2.6v-2.4H128.5z"/>
	<path class="st12" d="M130.1,410.8v-6.1h1.3v3.8c0,0.1,0,0.2,0,0.3s0,0.2,0,0.3c0.1-0.2,0.2-0.3,0.2-0.5c0,0,0-0.1,0.1-0.2
		c0.1-0.1,0.2-0.2,0.3-0.4s0.3-0.4,0.4-0.6s0.3-0.4,0.5-0.7c0.4-0.5,0.8-1.1,1.3-1.8c0-0.1,0.1-0.2,0.2-0.2c0.1-0.1,0.2-0.1,0.3-0.1
		h0.8v6.1h-1.3v-3.8c0-0.1,0-0.2,0-0.3c0-0.1,0-0.2,0-0.3c0,0.1-0.1,0.2-0.1,0.2s-0.1,0.1-0.1,0.2c0,0-0.1,0.1-0.1,0.2
		s-0.2,0.3-0.3,0.4s-0.3,0.4-0.4,0.6c-0.2,0.2-0.3,0.4-0.5,0.7c-0.4,0.5-0.8,1.1-1.3,1.8c0,0.1-0.1,0.1-0.2,0.2
		c-0.1,0.1-0.2,0.1-0.3,0.1H130.1z"/>
	<path class="st12" d="M137,410.8v-6.1h1.3v3.8c0,0.1,0,0.2,0,0.3c0,0.1,0,0.2,0,0.3c0.1-0.2,0.2-0.3,0.2-0.5c0,0,0-0.1,0.1-0.2
		c0.1-0.1,0.2-0.2,0.3-0.4s0.3-0.4,0.4-0.6s0.3-0.4,0.5-0.7c0.4-0.5,0.8-1.1,1.3-1.8c0-0.1,0.1-0.2,0.2-0.2c0.1-0.1,0.2-0.1,0.3-0.1
		h0.8v6.1h-1.3v-3.8c0-0.1,0-0.2,0-0.3c0-0.1,0-0.2,0-0.3c0,0.1-0.1,0.2-0.1,0.2c0,0.1-0.1,0.1-0.1,0.2c0,0-0.1,0.1-0.1,0.2
		c-0.1,0.1-0.2,0.3-0.3,0.4s-0.3,0.4-0.4,0.6s-0.3,0.4-0.5,0.7c-0.4,0.5-0.8,1.1-1.3,1.8c0,0.1-0.1,0.1-0.2,0.2
		c-0.1,0.1-0.2,0.1-0.3,0.1H137z M139.8,403.1c0.2,0,0.3,0,0.4-0.1c0.1,0,0.2-0.1,0.3-0.2s0.1-0.2,0.1-0.3c0-0.1,0-0.3,0-0.5h0.8
		c0.1,0,0.2,0,0.2,0.1c0,0.1,0.1,0.2,0.1,0.3c0,0.2,0,0.4-0.1,0.5s-0.2,0.3-0.4,0.4c-0.2,0.1-0.4,0.2-0.6,0.3
		c-0.2,0.1-0.5,0.1-0.8,0.1c-0.3,0-0.5,0-0.8-0.1c-0.2-0.1-0.4-0.2-0.6-0.3c-0.2-0.1-0.3-0.3-0.4-0.4s-0.1-0.3-0.1-0.5
		c0-0.1,0-0.2,0.1-0.3c0-0.1,0.1-0.1,0.2-0.1h0.8c0,0.2,0,0.3,0,0.5c0,0.1,0.1,0.2,0.1,0.3c0.1,0.1,0.1,0.1,0.3,0.2
		C139.5,403.1,139.6,403.1,139.8,403.1z"/>
</g>
</svg>
